<svg width="35" height="35" viewBox="0 0 35 35" fill="none" xmlns="http://www.w3.org/2000/svg">
<path d="M2.91663 8.74996C2.91663 7.20286 3.53121 5.71913 4.62517 4.62517C5.71913 3.53121 7.20286 2.91663 8.74996 2.91663H26.25C27.7971 2.91663 29.2808 3.53121 30.3747 4.62517C31.4687 5.71913 32.0833 7.20286 32.0833 8.74996V26.25C32.0833 27.7971 31.4687 29.2808 30.3747 30.3747C29.2808 31.4687 27.7971 32.0833 26.25 32.0833H8.74996C7.20286 32.0833 5.71913 31.4687 4.62517 30.3747C3.53121 29.2808 2.91663 27.7971 2.91663 26.25V8.74996Z" stroke="#555555" stroke-width="2" stroke-linecap="round" stroke-linejoin="round"/>
<path d="M12.3958 16.0417C14.4094 16.0417 16.0417 14.4094 16.0417 12.3958C16.0417 10.3823 14.4094 8.75 12.3958 8.75C10.3823 8.75 8.75 10.3823 8.75 12.3958C8.75 14.4094 10.3823 16.0417 12.3958 16.0417Z" stroke="#555555" stroke-width="2" stroke-linecap="round" stroke-linejoin="round"/>
<path d="M21.1837 18.4055L8.75 32.0832H26.444C27.9396 32.0832 29.374 31.4891 30.4316 30.4315C31.4892 29.3739 32.0833 27.9395 32.0833 26.4439V26.2499C32.0833 25.5703 31.8281 25.3093 31.3687 24.8062L25.4917 18.3968C25.2178 18.098 24.8846 17.8596 24.5134 17.6967C24.1422 17.5339 23.7411 17.4502 23.3358 17.4511C22.9304 17.4519 22.5297 17.5372 22.1592 17.7015C21.7887 17.8659 21.4564 18.1056 21.1837 18.4055V18.4055Z" stroke="#555555" stroke-width="2" stroke-linecap="round" stroke-linejoin="round"/>
</svg>
