<svg width="200" height="200" viewBox="0 0 200 200" fill="none" xmlns="http://www.w3.org/2000/svg">
<path d="M200 100C200 126.522 189.464 151.957 170.711 170.711C151.957 189.464 126.522 200 100 200C73.4784 200 48.043 189.464 29.2893 170.711C10.5357 151.957 0 126.522 0 100C0 73.4784 10.5357 48.043 29.2893 29.2893C48.043 10.5357 73.4784 0 100 0C126.522 0 151.957 10.5357 170.711 29.2893C189.464 48.043 200 73.4784 200 100V100ZM106.25 56.25C106.25 54.5924 105.592 53.0027 104.419 51.8306C103.247 50.6585 101.658 50 100 50C98.3424 50 96.7527 50.6585 95.5806 51.8306C94.4085 53.0027 93.75 54.5924 93.75 56.25V128.663L66.925 101.825C65.7514 100.651 64.1597 99.9921 62.5 99.9921C60.8403 99.9921 59.2486 100.651 58.075 101.825C56.9014 102.999 56.2421 104.59 56.2421 106.25C56.2421 107.91 56.9014 109.501 58.075 110.675L95.575 148.175C96.1556 148.757 96.8453 149.219 97.6046 149.534C98.3639 149.849 99.1779 150.011 100 150.011C100.822 150.011 101.636 149.849 102.395 149.534C103.155 149.219 103.844 148.757 104.425 148.175L141.925 110.675C143.099 109.501 143.758 107.91 143.758 106.25C143.758 104.59 143.099 102.999 141.925 101.825C140.751 100.651 139.16 99.9921 137.5 99.9921C135.84 99.9921 134.249 100.651 133.075 101.825L106.25 128.663V56.25Z" fill="white"/>
</svg>
