<svg width="30" height="30" viewBox="0 0 30 30" fill="none" xmlns="http://www.w3.org/2000/svg">
<g clip-path="url(#clip0_10_7)">
<path d="M12.1875 8.40367C15.3075 5.26679 23.1094 10.7549 12.1875 17.8124C1.26563 10.7549 9.0675 5.26867 12.1875 8.40367Z" fill="#555555"/>
<path d="M24.375 12.1875C24.3791 14.7803 23.5524 17.3062 22.0163 19.395C22.0913 19.4512 22.1625 19.5112 22.2319 19.5787L29.4506 26.7975C29.8025 27.149 30.0002 27.626 30.0004 28.1234C30.0006 28.6207 29.8032 29.0978 29.4516 29.4496C29.1 29.8015 28.6231 29.9992 28.1257 29.9994C27.6283 29.9996 27.1512 29.8022 26.7994 29.4506L19.5806 22.2318C19.5128 22.1648 19.4501 22.0927 19.3931 22.0162H19.3969C17.1878 23.6369 14.497 24.466 11.7588 24.3697C9.02066 24.2733 6.39483 23.2571 4.30514 21.485C2.21546 19.713 0.783829 17.2885 0.241318 14.6029C-0.301194 11.9173 0.0770625 9.12719 1.31504 6.68295C2.55301 4.23871 4.57848 2.28291 7.06454 1.13121C9.5506 -0.0204839 12.3522 -0.300887 15.0172 0.335259C17.6822 0.971405 20.0551 2.48699 21.753 4.63739C23.4508 6.7878 24.3745 9.44758 24.375 12.1875ZM12.1875 22.5C13.5418 22.5 14.8828 22.2332 16.1339 21.715C17.3851 21.1967 18.5219 20.4371 19.4796 19.4795C20.4372 18.5219 21.1968 17.385 21.715 16.1339C22.2333 14.8827 22.5 13.5417 22.5 12.1875C22.5 10.8332 22.2333 9.4922 21.715 8.24103C21.1968 6.98986 20.4372 5.85302 19.4796 4.89542C18.5219 3.93781 17.3851 3.1782 16.1339 2.65995C14.8828 2.1417 13.5418 1.87496 12.1875 1.87496C9.45247 1.87496 6.82944 2.96145 4.89548 4.89542C2.96151 6.82939 1.87502 9.45241 1.87502 12.1875C1.87502 14.9225 2.96151 17.5455 4.89548 19.4795C6.82944 21.4135 9.45247 22.5 12.1875 22.5Z" fill="#555555"/>
</g>
<defs>
<clipPath id="clip0_10_7">
<rect width="30" height="30" fill="white"/>
</clipPath>
</defs>
</svg>
