<svg width="50" height="50" viewBox="0 0 50 50" fill="none" xmlns="http://www.w3.org/2000/svg">
<path d="M7.8125 10.9375C7.3981 10.9375 7.00067 11.1021 6.70765 11.3951C6.41462 11.6882 6.25 12.0856 6.25 12.5V37.5C6.25 37.9144 6.41462 38.3118 6.70765 38.6049C7.00067 38.8979 7.3981 39.0625 7.8125 39.0625H42.1875C42.6019 39.0625 42.9993 38.8979 43.2924 38.6049C43.5854 38.3118 43.75 37.9144 43.75 37.5V12.5C43.75 12.0856 43.5854 11.6882 43.2924 11.3951C42.9993 11.1021 42.6019 10.9375 42.1875 10.9375H7.8125ZM7.8125 7.8125H42.1875C43.4307 7.8125 44.623 8.30636 45.5021 9.18544C46.3811 10.0645 46.875 11.2568 46.875 12.5V37.5C46.875 38.7432 46.3811 39.9355 45.5021 40.8146C44.623 41.6936 43.4307 42.1875 42.1875 42.1875H7.8125C6.5693 42.1875 5.37701 41.6936 4.49794 40.8146C3.61886 39.9355 3.125 38.7432 3.125 37.5V12.5C3.125 11.2568 3.61886 10.0645 4.49794 9.18544C5.37701 8.30636 6.5693 7.8125 7.8125 7.8125V7.8125Z" fill="white"/>
<path d="M34.375 15.625C35.2038 15.625 35.9987 15.9542 36.5847 16.5403C37.1708 17.1263 37.5 17.9212 37.5 18.75C37.5 19.5788 37.1708 20.3737 36.5847 20.9597C35.9987 21.5458 35.2038 21.875 34.375 21.875C33.5462 21.875 32.7513 21.5458 32.1653 20.9597C31.5792 20.3737 31.25 19.5788 31.25 18.75C31.25 17.9212 31.5792 17.1263 32.1653 16.5403C32.7513 15.9542 33.5462 15.625 34.375 15.625V15.625ZM14.0625 21.875H26.5625C27.6042 21.875 28.125 22.3958 28.125 23.4375C28.125 24.4792 27.6042 25 26.5625 25H14.0625C13.0208 25 12.5 24.4792 12.5 23.4375C12.5 22.3958 13.0208 21.875 14.0625 21.875ZM14.0625 28.125H26.5625C27.6042 28.125 28.125 28.6458 28.125 29.6875C28.125 30.7292 27.6042 31.25 26.5625 31.25H14.0625C13.0208 31.25 12.5 30.7292 12.5 29.6875C12.5 28.6458 13.0208 28.125 14.0625 28.125Z" fill="white"/>
</svg>
