<svg width="50" height="49" viewBox="0 0 50 49" fill="none" xmlns="http://www.w3.org/2000/svg">
<path d="M16.8264 6.15576C19.3991 -1.7622 30.6009 -1.7622 33.1736 6.15576C34.3242 9.69678 37.624 12.0942 41.3472 12.0942C49.6726 12.0942 53.1342 22.7478 46.3988 27.6414C43.3866 29.8298 42.1262 33.709 43.2767 37.25C45.8494 45.168 36.787 51.7522 30.0516 46.8586C27.0394 44.6702 22.9606 44.6702 19.9484 46.8586C13.213 51.7522 4.15057 45.168 6.72326 37.25C7.87381 33.709 6.6134 29.8298 3.60123 27.6414C-3.13419 22.7478 0.327358 12.0942 8.65279 12.0942C12.376 12.0942 15.6758 9.69678 16.8264 6.15576Z" fill="#F2BE39"/>
</svg>
