<svg width="30" height="30" viewBox="0 0 30 30" fill="none" xmlns="http://www.w3.org/2000/svg">
<g clip-path="url(#clip0_6_16)">
<path d="M11 14H19V12H11V14ZM20 15V21H22V15H20ZM19 22H11V24H19V22ZM10 21V15H8V21H10ZM11 22C10.7348 22 10.4804 21.8946 10.2929 21.7071C10.1054 21.5196 10 21.2652 10 21H8C8 21.7956 8.31607 22.5587 8.87868 23.1213C9.44129 23.6839 10.2044 24 11 24V22ZM20 21C20 21.2652 19.8946 21.5196 19.7071 21.7071C19.5196 21.8946 19.2652 22 19 22V24C19.7956 24 20.5587 23.6839 21.1213 23.1213C21.6839 22.5587 22 21.7956 22 21H20ZM19 14C19.2652 14 19.5196 14.1054 19.7071 14.2929C19.8946 14.4804 20 14.7348 20 15H22C22 14.2044 21.6839 13.4413 21.1213 12.8787C20.5587 12.3161 19.7956 12 19 12V14ZM11 12C10.2044 12 9.44129 12.3161 8.87868 12.8787C8.31607 13.4413 8 14.2044 8 15H10C10 14.7348 10.1054 14.4804 10.2929 14.2929C10.4804 14.1054 10.7348 14 11 14V12ZM12 13V11H10V13H12ZM18 11V13H20V11H18ZM15 8C15.7956 8 16.5587 8.31607 17.1213 8.87868C17.6839 9.44129 18 10.2044 18 11H20C20 9.67392 19.4732 8.40215 18.5355 7.46447C17.5979 6.52678 16.3261 6 15 6V8ZM12 11C12 10.2044 12.3161 9.44129 12.8787 8.87868C13.4413 8.31607 14.2044 8 15 8V6C13.6739 6 12.4021 6.52678 11.4645 7.46447C10.5268 8.40215 10 9.67392 10 11H12ZM2 15C2 11.5522 3.36964 8.24558 5.80761 5.80761C8.24558 3.36964 11.5522 2 15 2V0C11.0218 0 7.20644 1.58035 4.3934 4.3934C1.58035 7.20644 0 11.0218 0 15H2ZM15 28C11.5522 28 8.24558 26.6304 5.80761 24.1924C3.36964 21.7544 2 18.4478 2 15H0C0 18.9782 1.58035 22.7936 4.3934 25.6066C7.20644 28.4196 11.0218 30 15 30V28ZM28 15C28 16.7072 27.6637 18.3977 27.0104 19.9749C26.3571 21.5521 25.3996 22.9852 24.1924 24.1924C22.9852 25.3996 21.5521 26.3571 19.9749 27.0104C18.3977 27.6637 16.7072 28 15 28V30C18.9782 30 22.7936 28.4196 25.6066 25.6066C28.4196 22.7936 30 18.9782 30 15H28ZM30 15C30 11.0218 28.4196 7.20644 25.6066 4.3934C22.7936 1.58035 18.9782 0 15 0V2C16.7072 2 18.3977 2.33625 19.9749 2.98957C21.5521 3.64288 22.9852 4.60045 24.1924 5.80761C25.3996 7.01477 26.3571 8.44788 27.0104 10.0251C27.6637 11.6023 28 13.2928 28 15H30Z" fill="#666666"/>
</g>
<defs>
<clipPath id="clip0_6_16">
<rect width="30" height="30" fill="white"/>
</clipPath>
</defs>
</svg>
