<svg width="30" height="30" viewBox="0 0 30 30" fill="none" xmlns="http://www.w3.org/2000/svg">
<path d="M14.835 26.2708L8.52 29.6563L8.3715 29.7223C7.299 30.1273 6.2865 30.0463 5.517 29.3593C4.794 28.7143 4.5315 27.7903 4.6815 26.7268L5.7375 19.4368L0.967499 14.4238C0.142499 13.5838 -0.180001 12.5518 0.0974989 11.4718C0.404999 10.2733 1.4175 9.58481 2.874 9.35381L9.2145 8.39681L12.534 1.51931C13.05 0.548808 13.854 -0.025692 14.8665 0.00130804C15.8565 0.026808 16.641 0.634308 17.256 1.71581L20.466 8.44481L27.576 9.43181C28.7055 9.62681 29.538 10.2148 29.871 11.1958C30.201 12.1753 29.886 13.1653 29.0355 14.1763L23.8755 19.4413L25.0335 26.7253C25.2165 27.9853 24.996 28.9828 24.1545 29.5753C23.3955 30.1108 22.446 30.1108 21.354 29.7358L21.174 29.6563L14.835 26.2708V26.2708Z" fill="#FFC700"/>
</svg>
