<svg width="35" height="35" viewBox="0 0 35 35" fill="none" xmlns="http://www.w3.org/2000/svg">
<path d="M0 5C0 3.67392 0.460936 2.40215 1.28141 1.46447C2.10188 0.526784 3.21468 0 4.375 0H30.625C31.7853 0 32.8981 0.526784 33.7186 1.46447C34.5391 2.40215 35 3.67392 35 5V30C35 31.3261 34.5391 32.5979 33.7186 33.5355C32.8981 34.4732 31.7853 35 30.625 35H4.375C3.21468 35 2.10188 34.4732 1.28141 33.5355C0.460936 32.5979 0 31.3261 0 30V5ZM2.1875 27.5V30C2.1875 30.663 2.41797 31.2989 2.8282 31.7678C3.23844 32.2366 3.79484 32.5 4.375 32.5H30.625C31.2052 32.5 31.7616 32.2366 32.1718 31.7678C32.582 31.2989 32.8125 30.663 32.8125 30V21.25L24.5503 16.3825C24.3452 16.2651 24.1129 16.2243 23.8864 16.266C23.6599 16.3078 23.4506 16.4298 23.2881 16.615L15.1725 25.89L9.35375 21.46C9.14366 21.3001 8.89167 21.2283 8.64049 21.2565C8.38931 21.2848 8.15442 21.4114 7.97563 21.615L2.1875 27.5ZM13.125 11.25C13.125 10.2554 12.7793 9.30161 12.1639 8.59835C11.5486 7.89509 10.714 7.5 9.84375 7.5C8.97351 7.5 8.13891 7.89509 7.52356 8.59835C6.9082 9.30161 6.5625 10.2554 6.5625 11.25C6.5625 12.2446 6.9082 13.1984 7.52356 13.9017C8.13891 14.6049 8.97351 15 9.84375 15C10.714 15 11.5486 14.6049 12.1639 13.9017C12.7793 13.1984 13.125 12.2446 13.125 11.25Z" fill="white"/>
</svg>
