<svg width="35" height="35" viewBox="0 0 35 35" fill="none" xmlns="http://www.w3.org/2000/svg">
<path d="M0 5.3358C0 4.0436 0.460936 2.80431 1.28141 1.89059C2.10188 0.976859 3.21468 0.463531 4.375 0.463531H30.625C31.7853 0.463531 32.8981 0.976859 33.7186 1.89059C34.5391 2.80431 35 4.0436 35 5.3358V29.6972C35 30.9894 34.5391 32.2286 33.7186 33.1424C32.8981 34.0561 31.7853 34.5694 30.625 34.5694H4.375C3.21468 34.5694 2.10188 34.0561 1.28141 33.1424C0.460936 32.2286 0 30.9894 0 29.6972V5.3358V5.3358ZM2.1875 27.261V29.6972C2.1875 30.3433 2.41797 30.9629 2.8282 31.4198C3.23844 31.8766 3.79484 32.1333 4.375 32.1333H30.625C31.2052 32.1333 31.7616 31.8766 32.1718 31.4198C32.582 30.9629 32.8125 30.3433 32.8125 29.6972V21.1707L24.5503 16.4275C24.3452 16.3131 24.1129 16.2734 23.8864 16.314C23.6599 16.3547 23.4506 16.4737 23.2881 16.6541L15.1725 25.6921L9.35375 21.3753C9.14366 21.2195 8.89167 21.1495 8.64049 21.177C8.38931 21.2045 8.15442 21.328 7.97562 21.5264L2.1875 27.261ZM13.125 11.4261C13.125 10.457 12.7793 9.52752 12.1639 8.84223C11.5486 8.15693 10.714 7.77194 9.84375 7.77194C8.97351 7.77194 8.13891 8.15693 7.52356 8.84223C6.9082 9.52752 6.5625 10.457 6.5625 11.4261C6.5625 12.3953 6.9082 13.3248 7.52356 14.0101C8.13891 14.6953 8.97351 15.0803 9.84375 15.0803C10.714 15.0803 11.5486 14.6953 12.1639 14.0101C12.7793 13.3248 13.125 12.3953 13.125 11.4261Z" fill="white"/>
</svg>
