<svg width="35" height="41" viewBox="0 0 35 41" fill="none" xmlns="http://www.w3.org/2000/svg">
<path d="M0 6.16875C0 4.63005 0.460936 3.15437 1.28141 2.06634C2.10188 0.978313 3.21468 0.367065 4.375 0.367065H30.625C31.7853 0.367065 32.8981 0.978313 33.7186 2.06634C34.5391 3.15437 35 4.63005 35 6.16875V35.1772C35 36.7159 34.5391 38.1916 33.7186 39.2796C32.8981 40.3676 31.7853 40.9789 30.625 40.9789H4.375C3.21468 40.9789 2.10188 40.3676 1.28141 39.2796C0.460936 38.1916 0 36.7159 0 35.1772V6.16875ZM2.1875 32.2763V35.1772C2.1875 35.9465 2.41797 36.6844 2.8282 37.2284C3.23844 37.7724 3.79484 38.078 4.375 38.078H30.625C31.2052 38.078 31.7616 37.7724 32.1718 37.2284C32.582 36.6844 32.8125 35.9465 32.8125 35.1772V25.0242L24.5503 19.3763C24.3452 19.24 24.1129 19.1928 23.8864 19.2412C23.6599 19.2896 23.4506 19.4312 23.2881 19.6461L15.1725 30.4082L9.35375 25.2679C9.14366 25.0824 8.89167 24.999 8.64049 25.0318C8.38931 25.0646 8.15442 25.2115 7.97563 25.4478L2.1875 32.2763ZM13.125 13.4209C13.125 12.2668 12.7793 11.1601 12.1639 10.3441C11.5486 9.52803 10.714 9.0696 9.84375 9.0696C8.97351 9.0696 8.13891 9.52803 7.52356 10.3441C6.9082 11.1601 6.5625 12.2668 6.5625 13.4209C6.5625 14.5749 6.9082 15.6817 7.52356 16.4977C8.13891 17.3137 8.97351 17.7721 9.84375 17.7721C10.714 17.7721 11.5486 17.3137 12.1639 16.4977C12.7793 15.6817 13.125 14.5749 13.125 13.4209Z" fill="white"/>
</svg>
