<svg width="25" height="35" viewBox="0 0 25 35" fill="none" xmlns="http://www.w3.org/2000/svg">
<path d="M21.339 20.0372C26.2203 15.4537 26.2203 8.02209 21.339 3.43765C16.4572 -1.14589 8.54319 -1.14589 3.66137 3.43765C-1.22046 8.02209 -1.22046 15.4537 3.66137 20.0372C5.4082 21.6822 7.63759 22.8009 10.0648 23.2503V26.8782H7.53406C7.43717 26.8782 7.34122 26.8961 7.25169 26.9309C7.16217 26.9657 7.08084 27.0167 7.01234 27.0811C6.94385 27.1454 6.88955 27.2218 6.85254 27.3059C6.81554 27.39 6.79655 27.4801 6.79668 27.5711V30.6591C6.79668 31.0411 7.12717 31.351 7.53406 31.3515H10.0648V34.3076C10.0648 34.6453 10.3227 34.926 10.6636 34.987V35H14.0912C14.4981 35 14.8286 34.6901 14.8286 34.3076H14.8291V31.3515H17.4668C17.8741 31.3515 18.2042 31.0416 18.2042 30.6591V27.5711C18.2045 27.4801 18.1856 27.3899 18.1487 27.3057C18.1117 27.2215 18.0574 27.1451 17.9889 27.0807C17.9204 27.0163 17.839 26.9652 17.7494 26.9305C17.6598 26.8958 17.5637 26.878 17.4668 26.8782H14.8296V23.2692C17.297 22.8334 19.5663 21.7067 21.339 20.0372V20.0372ZM12.5004 19.0018C8.22799 19.0018 4.7641 15.7497 4.76458 11.7379C4.76458 7.72612 8.22799 4.47356 12.5009 4.47356C16.7733 4.47356 20.2372 7.72567 20.2367 11.7374C20.2363 15.7492 16.7728 19.0018 12.5004 19.0018V19.0018Z" fill="#F582A7"/>
</svg>
