<svg width="30" height="30" viewBox="0 0 30 30" fill="none" xmlns="http://www.w3.org/2000/svg">
<path fill-rule="evenodd" clip-rule="evenodd" d="M15.2025 4.21007L15.2067 0L30 0.0147352L29.9831 14.75L25.7564 14.7458L25.7649 7.19291L19.3319 13.6006C20.7945 15.7701 21.3949 18.4039 21.0164 20.9898C20.6378 23.5758 19.3074 25.9291 17.2838 27.5923C15.2601 29.2554 12.6879 30.1096 10.0671 29.9887C7.44632 29.8678 4.96433 28.7805 3.10367 26.9381C1.25505 25.1011 0.154804 22.6473 0.0151358 20.05C-0.124532 17.4526 0.706268 14.8958 2.34731 12.8726C3.98834 10.8493 6.32338 9.50299 8.90206 9.09324C11.4807 8.68349 14.1204 9.23934 16.312 10.6536L22.7745 4.21849L15.2025 4.21007ZM6.09403 15.03C7.28339 13.8458 8.89628 13.1808 10.5779 13.1812C11.4105 13.1814 12.235 13.3449 13.0042 13.6625C13.7734 13.9801 14.4722 14.4455 15.0609 15.0321C15.6495 15.6187 16.1164 16.315 16.4348 17.0813C16.7533 17.8476 16.9171 18.6689 16.9169 19.4983C16.9167 20.3277 16.7525 21.1489 16.4337 21.9151C16.1149 22.6813 15.6477 23.3774 15.0588 23.9637C13.8661 25.1317 12.2584 25.7829 10.5859 25.7756C8.91339 25.7682 7.31155 25.1028 6.12931 23.9244C4.94707 22.746 4.28021 21.1499 4.274 19.484C4.26779 17.818 4.92272 16.2171 6.09614 15.03H6.09403Z" fill="#5EE6EB"/>
</svg>
